<svg width="12" height="12" viewBox="0 0 12 12" fill="none" xmlns="http://www.w3.org/2000/svg">
<path d="M6 0.75C4.90638 0.75129 3.85792 1.1863 3.08461 1.95961C2.31131 2.73292 1.87629 3.78138 1.875 4.875C1.87369 5.76871 2.16562 6.63817 2.706 7.35C2.706 7.35 2.8185 7.49813 2.83688 7.5195L6 11.25L9.16463 7.51763C9.18113 7.49775 9.294 7.35 9.294 7.35L9.29438 7.34888C9.83449 6.63735 10.1263 5.7683 10.125 4.875C10.1237 3.78138 9.6887 2.73292 8.91539 1.95961C8.14209 1.1863 7.09363 0.75129 6 0.75ZM6 6.375C5.70333 6.375 5.41332 6.28703 5.16665 6.1222C4.91998 5.95738 4.72772 5.72311 4.61419 5.44903C4.50065 5.17494 4.47095 4.87334 4.52883 4.58236C4.5867 4.29139 4.72957 4.02412 4.93934 3.81434C5.14912 3.60456 5.4164 3.4617 5.70737 3.40382C5.99834 3.34594 6.29994 3.37565 6.57403 3.48918C6.84812 3.60271 7.08239 3.79497 7.24721 4.04164C7.41203 4.28832 7.5 4.57833 7.5 4.875C7.49951 5.27267 7.34131 5.65391 7.06012 5.93511C6.77892 6.21631 6.39768 6.3745 6 6.375Z" fill="#262626"/>
</svg>
